<svg xmlns="http://www.w3.org/2000/svg" width="512" height="512" viewBox="0 0 512 512" role="img" aria-labelledby="title desc">
  <title id="title">FFCodec Lab flat icon</title>
  <desc id="desc">A flat dark rounded-square icon combining a laboratory flask with a video play symbol.</desc>
  <rect width="512" height="512" rx="112" fill="#0F172A"/>
  <path d="M210 108h92v34h-15v60l76 132c18 31-4 70-40 70H189c-36 0-58-39-40-70l76-132v-60h-15z"
        fill="#F8FAFC"/>
  <path d="M239 142h34v69l83 144c6 11-2 25-15 25H171c-13 0-21-14-15-25l83-144z"
        fill="#0F172A"/>
  <path d="M179 322h154l23 40c6 11-2 25-15 25H171c-13 0-21-14-15-25z"
        fill="#2563EB"/>
  <path d="M189 322h134l10 18H179z" fill="#38BDF8"/>
  <path d="M235 299v82l70-41z" fill="#F97316"/>
  <rect x="151" y="180" width="22" height="22" rx="6" fill="#38BDF8"/>
  <rect x="339" y="180" width="22" height="22" rx="6" fill="#38BDF8"/>
  <rect x="151" y="218" width="22" height="22" rx="6" fill="#2563EB"/>
  <rect x="339" y="218" width="22" height="22" rx="6" fill="#2563EB"/>
</svg>